<?xml version="1.0" encoding="UTF-8"?>
<svg xmlns="http://www.w3.org/2000/svg" version="1.1" viewBox="0 0 500 741.5">
  <defs>
    <style>
      .cls-1 {
        fill: #603813;
      }

      .cls-2 {
        fill: #a67c52;
      }

      .cls-3 {
        fill: #fff;
      }

      .cls-4 {
        fill: #c69c6d;
      }

      .cls-5 {
        fill: #754c24;
      }

      .cls-6 {
        fill: none;
        stroke: #754c24;
        stroke-miterlimit: 10;
        stroke-width: 4.9px;
      }

      .cls-7 {
        fill: #333;
      }
    </style>
  </defs>
  <!-- Generator: Adobe Illustrator 28.7.1, SVG Export Plug-In . SVG Version: 1.2.0 Build 142)  -->
  <g>
    <g id="Layer_1">
      <g id="Legs">
        <path class="cls-5" d="M48.7,741.3h0c-4.7-1-7.7-5.4-6.9-10.1l25.1-186,39.9,8.5-47.7,181.2c-1.2,4.6-5.8,7.4-10.4,6.4Z"/>
        <polygon class="cls-1" points="60.9 590.1 96.7 592.7 106.8 553.7 66.9 545.2 60.9 590.1"/>
        <path class="cls-1" d="M111.7,671.1h0c-4.7-1-7.7-5.4-6.9-10.1l25.1-186,39.9,8.5-47.7,181.2c-1.2,4.6-5.8,7.4-10.4,6.4Z"/>
        <path class="cls-5" d="M448,741.3h0c4.7-1,7.7-5.4,6.9-10.1l-25.1-186-39.9,8.5,47.7,181.2c1.2,4.6,5.7,7.4,10.4,6.4Z"/>
        <polygon class="cls-1" points="435.8 590.1 400 592.7 389.8 553.7 429.7 545.2 435.8 590.1"/>
        <path class="cls-1" d="M385,671.1h0c4.7-1,7.7-5.4,6.9-10.1l-25.1-186-39.9,8.5,47.7,181.2c1.2,4.6,5.7,7.4,10.4,6.4Z"/>
        <path class="cls-1" d="M476.4,559.5c-1.2,6.8-6.6,12-13.5,12.9-24.7,3.1-91.4,9.6-212.9,9.6s-188-6.5-212.8-9.6c-6.9-.9-12.4-6.1-13.5-13-3.3-19.9-9.1-66.1-9.1-141.3s5.8-121.5,9.1-141.3c1.2-6.8,6.6-12.1,13.5-13,24.2-3.1,88.6-9.6,208.3-9.6s191.7,6.7,217.4,9.7c6.9.8,12.4,6.1,13.6,12.9,3.3,19.4,9,64.3,9,141.2,0,77.3-5.8,122.2-9.1,141.5Z"/>
      </g>
      <g id="TV">
        <path class="cls-2" d="M490.5,509.3c-1.3,7.3-7.1,12.8-14.4,13.7-26.2,3.3-97,10.2-226.1,10.2s-199.6-6.9-226-10.2c-7.3-.9-13.1-6.5-14.4-13.8-3.5-21.1-9.7-70.2-9.7-150s7.3-97.8,10.4-124.4c1.3-11,25.8-38,37.4-39.5,25.7-3.2,70.2-10.2,197.4-10.2s179.7,7.1,207,10.3c13.9,1.6,37,28.3,38.2,39.3,3,26.2,9.6,66.8,9.6,124.4,0,82.1-6,129.8-9.5,150.2Z"/>
        <path class="cls-4" d="M490.5,539.1c-1.3,7.3-7.1,12.8-14.4,13.7-26.2,3.3-97,10.2-226.1,10.2s-199.6-6.9-226-10.2c-7.3-.9-13.1-6.5-14.4-13.8-3.5-21.1-9.7-70.2-9.7-150s6.2-129,9.7-150.1c1.2-7.3,7-12.8,14.3-13.8,25.7-3.3,94.1-10.2,221.2-10.2s203.6,7.1,230.7,10.3c7.3.9,13.2,6.5,14.5,13.8,3.5,20.6,9.5,68.3,9.5,150,0,82-5.9,129.7-9.4,150.1Z"/>
        <path class="cls-2" d="M463,522c-1.1,6.4-6.2,11.3-12.7,12.1-23.3,2.9-85.9,9-200.3,9s-176.9-6.1-200.2-9c-6.5-.8-11.6-5.8-12.7-12.2-3.1-18.7-8.5-62.3-8.5-132.9s5.5-114.3,8.5-133c1.1-6.4,6.2-11.3,12.6-12.2,22.7-2.9,83.3-9,196-9s180.3,6.3,204.5,9.1c6.5.8,11.6,5.7,12.8,12.1,3.1,18.2,8.4,60.4,8.4,132.9,0,72.6-5.3,114.8-8.4,133.1Z"/>
        <path class="cls-5" d="M343,495.9c-2,10.2-10.1,18.1-20.4,19.9-22.2,3.7-66.2,7.7-126,7.7s-103.5-3.9-125.8-7.7c-10.3-1.7-18.5-9.7-20.5-19.9-3.7-19.1-8.7-54.8-8.7-107.7s5-88.8,8.7-107.9c1.9-10.2,10-18,20.3-19.9,21.1-3.7,62.9-7.4,125.9-7.4s104.9,3.7,126.1,7.4c10.2,1.7,18.2,9.6,20.2,19.7,3.7,18.6,8.6,53.6,8.6,108.1,0,54.1-4.8,89-8.4,107.7Z"/>
        <path class="cls-5" d="M450.8,412.4c0,1.4-1.1,2.4-2.4,2.4h-71.4c-1.4,0-2.4-1.1-2.4-2.4h0c0-1.4,1.1-2.4,2.4-2.4h71.4c1.4,0,2.4,1.1,2.4,2.4h0Z"/>
        <path class="cls-5" d="M450.8,424.9c0,1.4-1.1,2.4-2.4,2.4h-71.4c-1.4,0-2.4-1.1-2.4-2.4h0c0-1.4,1.1-2.4,2.4-2.4h71.4c1.4,0,2.4,1.1,2.4,2.4h0Z"/>
        <path class="cls-5" d="M450.8,437.4c0,1.4-1.1,2.4-2.4,2.4h-71.4c-1.4,0-2.4-1.1-2.4-2.4h0c0-1.4,1.1-2.4,2.4-2.4h71.4c1.4,0,2.4,1.1,2.4,2.4h0Z"/>
        <path class="cls-5" d="M450.8,450c0,1.4-1.1,2.4-2.4,2.4h-71.4c-1.4,0-2.4-1.1-2.4-2.4h0c0-1.4,1.1-2.4,2.4-2.4h71.4c1.4,0,2.4,1.1,2.4,2.4h0Z"/>
        <path class="cls-5" d="M450.8,462.4c0,1.4-1.1,2.4-2.4,2.4h-71.4c-1.4,0-2.4-1.1-2.4-2.4h0c0-1.4,1.1-2.4,2.4-2.4h71.4c1.4,0,2.4,1.2,2.4,2.4h0Z"/>
        <path class="cls-5" d="M450.8,474.9c0,1.4-1.1,2.4-2.4,2.4h-71.4c-1.4,0-2.4-1.1-2.4-2.4h0c0-1.4,1.1-2.4,2.4-2.4h71.4c1.4,0,2.4,1.2,2.4,2.4h0Z"/>
        <path class="cls-5" d="M450.8,487.4c0,1.4-1.1,2.4-2.4,2.4h-71.4c-1.4,0-2.4-1.1-2.4-2.4h0c0-1.4,1.1-2.4,2.4-2.4h71.4c1.4,0,2.4,1.2,2.4,2.4h0Z"/>
        <path class="cls-5" d="M450.8,499.9c0,1.4-1.1,2.4-2.4,2.4h-71.4c-1.4,0-2.4-1.1-2.4-2.4h0c0-1.4,1.1-2.4,2.4-2.4h71.4c1.4,0,2.4,1.1,2.4,2.4h0Z"/>
      </g>
      <g id="Antenna">
        <polyline class="cls-6" points="143.8 0 250.9 193.9 356 0"/>
        <path class="cls-7" d="M252,168.8c-14.3,0-25.9,11.5-25.9,25.9v1.5c7.4,2.6,16.7,4.2,26.8,4.2s17.7-1.3,24.8-3.5c0-.7,0-1.5,0-2.1,0-14.4-11.5-25.9-25.8-25.9Z"/>
      </g>
      <g id="Volume">
        <circle class="cls-1" cx="410.5" cy="301.6" r="25.3"/>
        <circle class="cls-5" cx="410.5" cy="295.6" r="25.3"/>
        <circle class="cls-1" cx="410.5" cy="295.6" r="19.6"/>
        <path class="cls-5" d="M414.5,312.4c0,2.3-1.8,4.2-4.2,4.2h0c-2.3,0-4.2-1.8-4.2-4.2v-33.9c0-2.3,1.8-4.2,4.2-4.2h0c2.3,0,4.2,1.8,4.2,4.2v33.9Z"/>
        <circle class="cls-1" cx="410.5" cy="369" r="25.3"/>
        <circle class="cls-5" cx="410.5" cy="362.9" r="25.3"/>
        <circle class="cls-1" cx="410.5" cy="363" r="19.6"/>
        <path class="cls-5" d="M414.5,380.3c0,2.3-1.8,4.2-4.2,4.2h0c-2.3,0-4.2-1.8-4.2-4.2v-33.9c0-2.3,1.8-4.2,4.2-4.2h0c2.3,0,4.2,1.8,4.2,4.2v33.9Z"/>
      </g>
      <g id="Shine">
        <path class="cls-3" d="M332.8,287.8c-1.2-6-4.8-11.3-9.6-14.5,1.7,2.5,3,5.4,3.7,8.6,3.4,17.3,8.1,49.9,8.1,100.6s-4.6,82.8-8,100.2c-1.8,9.5-9.4,16.9-19,18.5-20.7,3.5-61.7,7.2-117.3,7.2s-96.3-3.6-117.1-7.1c-3.5-.6-6.7-1.9-9.4-3.8,3.5,5.1,9,8.7,15.3,9.8,20.8,3.5,61.6,7.1,117.1,7.1s96.6-3.7,117.3-7.2c9.6-1.6,17.1-9,19-18.5,3.4-17.4,8-49.9,8-100.2s-4.7-83.4-8.1-100.7Z"/>
      </g>
    </g>
  </g>
</svg>